<svg xmlns="http://www.w3.org/2000/svg" xmlns:xlink="http://www.w3.org/1999/xlink" width="500" zoomAndPan="magnify" viewBox="0 0 375 374.999991" height="500" preserveAspectRatio="xMidYMid meet" version="1.0"><defs><g/><clipPath id="2d2ce1ba6e"><path d="M 146.378906 106.761719 L 228.621094 106.761719 L 228.621094 208 L 146.378906 208 Z M 146.378906 106.761719 " clip-rule="nonzero"/></clipPath><clipPath id="42c1a58c51"><path d="M 173.808594 109.136719 C 178.011719 107.703125 182.816406 106.761719 187.523438 106.761719 C 192.226562 106.761719 196.753906 107.566406 200.925781 109 C 201.015625 109.046875 201.101562 109.046875 201.191406 109.089844 C 216.859375 114.824219 228.398438 129.972656 228.621094 147.667969 L 228.621094 207.980469 L 146.378906 207.980469 L 146.378906 147.714844 C 146.601562 129.882812 157.964844 114.738281 173.808594 109.136719 Z M 173.808594 109.136719 " clip-rule="nonzero"/></clipPath><clipPath id="7ff619f163"><path d="M 177.882812 168.710938 L 193.160156 168.710938 L 193.160156 207.765625 L 177.882812 207.765625 Z M 177.882812 168.710938 " clip-rule="nonzero"/></clipPath><clipPath id="872ad65057"><path d="M 166.882812 163 L 178 163 L 178 171 L 166.882812 171 Z M 166.882812 163 " clip-rule="nonzero"/></clipPath><clipPath id="d1c1608133"><path d="M 189.824219 132.359375 L 208.117188 132.359375 L 208.117188 144.476562 L 189.824219 144.476562 Z M 189.824219 132.359375 " clip-rule="nonzero"/></clipPath><clipPath id="6eee3363d4"><path d="M 182 120.015625 L 197 120.015625 L 197 126 L 182 126 Z M 182 120.015625 " clip-rule="nonzero"/></clipPath></defs><rect x="-37.5" width="450" fill="#ffffff" y="-37.499999" height="449.999989" fill-opacity="1"/><rect x="-37.5" width="450" fill="#000000" y="-37.499999" height="449.999989" fill-opacity="1"/><g clip-path="url(#2d2ce1ba6e)"><g clip-path="url(#42c1a58c51)"><path fill="#ffd700" d="M 146.378906 106.761719 L 228.621094 106.761719 L 228.621094 207.957031 L 146.378906 207.957031 Z M 146.378906 106.761719 " fill-opacity="1" fill-rule="nonzero"/></g></g><path fill="#ff66c4" d="M 183.585938 187.453125 C 183.535156 187.453125 183.484375 187.4375 183.4375 187.40625 C 183.316406 187.328125 183.285156 187.164062 183.363281 187.042969 C 183.9375 186.179688 184.410156 185.253906 184.878906 184.296875 C 186.421875 181.171875 187.960938 177.964844 189.457031 174.761719 C 189.65625 174.335938 189.855469 173.90625 190.050781 173.476562 L 190.226562 173.089844 C 191.675781 169.875 193.03125 166.398438 193.152344 162.742188 C 193.15625 162.578125 193.160156 162.414062 193.160156 162.25 C 193.160156 161.871094 193.148438 161.484375 193.125 161.105469 C 192.960938 158.398438 192.214844 155.675781 191.496094 153.042969 C 190.652344 149.972656 189.78125 146.796875 189.828125 143.617188 C 189.828125 143.585938 189.828125 143.550781 189.832031 143.515625 C 189.84375 143.371094 189.96875 143.261719 190.113281 143.273438 C 190.257812 143.28125 190.367188 143.410156 190.355469 143.554688 C 190.355469 143.574219 190.355469 143.597656 190.355469 143.621094 C 190.308594 146.730469 191.171875 149.867188 192.003906 152.90625 C 192.730469 155.566406 193.484375 158.3125 193.652344 161.074219 C 193.675781 161.464844 193.6875 161.859375 193.6875 162.25 C 193.6875 162.421875 193.683594 162.589844 193.675781 162.761719 C 193.554688 166.507812 192.175781 170.042969 190.707031 173.304688 L 190.527344 173.699219 C 190.332031 174.128906 190.132812 174.558594 189.933594 174.984375 C 188.4375 178.191406 186.894531 181.402344 185.351562 184.527344 C 184.894531 185.460938 184.394531 186.449219 183.804688 187.335938 C 183.753906 187.410156 183.667969 187.453125 183.585938 187.453125 " fill-opacity="1" fill-rule="nonzero"/><path fill="#ff66c4" d="M 178.652344 169.332031 C 178.539062 169.332031 178.429688 169.324219 178.320312 169.308594 C 178.253906 169.300781 178.195312 169.292969 178.132812 169.277344 C 177.839844 169.214844 177.546875 169.101562 177.25 168.925781 C 176.769531 168.652344 176.351562 168.269531 176.003906 167.933594 C 174.230469 166.222656 172.679688 164.289062 171.394531 162.195312 C 171.09375 161.703125 170.847656 161.226562 170.660156 160.773438 C 170.054688 159.292969 170.070312 158.058594 170.707031 157.109375 C 171.039062 156.617188 171.5 156.328125 171.96875 156.320312 C 172.269531 156.320312 172.539062 156.425781 172.777344 156.519531 C 174.363281 157.15625 176.363281 157.761719 177.855469 156.839844 C 178.070312 156.707031 178.277344 156.542969 178.523438 156.335938 L 178.65625 156.226562 C 179.257812 155.71875 179.882812 155.191406 180.707031 155.226562 C 182.027344 155.285156 182.683594 156.714844 182.902344 157.332031 C 183 157.585938 183.082031 157.859375 183.15625 158.140625 C 183.375 158.988281 183.476562 159.890625 183.457031 160.824219 C 183.453125 160.96875 183.332031 161.089844 183.1875 161.082031 C 183.042969 161.082031 182.929688 160.960938 182.929688 160.8125 C 182.949219 159.929688 182.851562 159.074219 182.648438 158.273438 C 182.578125 158.011719 182.496094 157.753906 182.410156 157.511719 C 182.265625 157.109375 181.710938 155.796875 180.6875 155.753906 C 180.0625 155.726562 179.542969 156.164062 178.996094 156.628906 L 178.863281 156.738281 C 178.601562 156.960938 178.375 157.140625 178.132812 157.289062 C 176.441406 158.335938 174.285156 157.691406 172.59375 157.011719 C 172.371094 156.925781 172.171875 156.84375 171.980469 156.847656 C 171.6875 156.851562 171.375 157.058594 171.144531 157.402344 C 170.609375 158.199219 170.613281 159.265625 171.148438 160.574219 C 171.324219 161 171.558594 161.453125 171.84375 161.917969 C 173.105469 163.976562 174.628906 165.875 176.371094 167.554688 C 176.695312 167.871094 177.085938 168.222656 177.511719 168.472656 C 177.761719 168.617188 178.003906 168.710938 178.242188 168.761719 C 178.296875 168.773438 178.34375 168.78125 178.390625 168.785156 C 178.941406 168.859375 179.535156 168.699219 180.207031 168.292969 C 180.332031 168.21875 180.492188 168.257812 180.566406 168.382812 C 180.644531 168.503906 180.605469 168.667969 180.480469 168.742188 C 179.828125 169.136719 179.226562 169.332031 178.652344 169.332031 " fill-opacity="1" fill-rule="nonzero"/><path fill="#ff66c4" d="M 179.652344 170.546875 C 179.863281 170.585938 180.078125 170.625 180.285156 170.667969 C 181.1875 170.84375 182.121094 171.023438 183.03125 171 C 185.234375 170.941406 187.316406 169.558594 188.332031 167.625 C 187.621094 168.210938 186.75 168.589844 185.828125 168.695312 C 185.433594 168.742188 185.035156 168.734375 184.652344 168.730469 L 184.574219 168.730469 C 184.113281 168.722656 183.703125 168.71875 183.300781 168.785156 C 182.777344 168.871094 182.273438 169.078125 181.898438 169.246094 C 181.539062 169.40625 181.1875 169.585938 180.847656 169.777344 C 180.4375 170.007812 180.039062 170.265625 179.652344 170.546875 Z M 182.863281 171.527344 C 181.957031 171.527344 181.058594 171.351562 180.1875 171.183594 C 179.824219 171.113281 179.449219 171.042969 179.078125 170.980469 C 178.96875 171.058594 178.816406 171.035156 178.730469 170.933594 C 178.707031 170.902344 178.6875 170.871094 178.679688 170.835938 C 178.644531 170.785156 178.625 170.722656 178.636719 170.652344 C 178.65625 170.507812 178.785156 170.410156 178.929688 170.425781 C 179.460938 170.011719 180.015625 169.640625 180.589844 169.320312 C 180.941406 169.117188 181.308594 168.933594 181.679688 168.765625 C 182.089844 168.582031 182.628906 168.359375 183.214844 168.265625 C 183.660156 168.191406 184.097656 168.195312 184.582031 168.203125 L 184.660156 168.203125 C 185.042969 168.210938 185.40625 168.214844 185.765625 168.171875 C 187.019531 168.03125 188.175781 167.308594 188.859375 166.246094 C 188.929688 166.136719 189.066406 166.09375 189.1875 166.144531 C 189.304688 166.195312 189.367188 166.324219 189.335938 166.453125 C 188.648438 169.265625 185.941406 171.445312 183.046875 171.527344 C 182.984375 171.527344 182.925781 171.527344 182.863281 171.527344 " fill-opacity="1" fill-rule="nonzero"/><path fill="#ff66c4" d="M 180.71875 169.8125 C 180.621094 169.8125 180.527344 169.757812 180.484375 169.664062 C 180.316406 169.324219 180.183594 168.960938 180.085938 168.582031 C 179.683594 167.019531 179.882812 165.242188 180.628906 163.714844 C 181.175781 162.605469 181.957031 161.59375 183.015625 160.625 C 183.847656 159.859375 184.867188 159.109375 186.128906 158.339844 C 186.410156 158.167969 187.257812 157.644531 187.914062 158.109375 C 188.570312 158.566406 188.371094 159.539062 188.304688 159.855469 L 188.289062 159.945312 C 187.769531 162.398438 186.933594 164.773438 185.800781 167 C 185.453125 167.691406 185.128906 168.210938 184.78125 168.632812 C 184.691406 168.746094 184.523438 168.761719 184.410156 168.667969 C 184.296875 168.578125 184.28125 168.410156 184.375 168.300781 C 184.695312 167.90625 185 167.417969 185.332031 166.761719 C 186.445312 164.574219 187.265625 162.246094 187.773438 159.835938 L 187.789062 159.75 C 187.917969 159.109375 187.863281 158.714844 187.613281 158.539062 C 187.363281 158.367188 186.957031 158.449219 186.40625 158.789062 C 185.171875 159.542969 184.179688 160.269531 183.375 161.011719 C 182.359375 161.9375 181.617188 162.898438 181.105469 163.949219 C 180.421875 165.34375 180.230469 167.027344 180.597656 168.453125 C 180.6875 168.796875 180.804688 169.125 180.957031 169.433594 C 181.019531 169.5625 180.964844 169.722656 180.835938 169.785156 C 180.796875 169.804688 180.757812 169.8125 180.71875 169.8125 " fill-opacity="1" fill-rule="nonzero"/><path fill="#ff66c4" d="M 182.621094 181.167969 C 182.539062 181.167969 182.457031 181.128906 182.40625 181.058594 C 180.734375 178.671875 178.335938 176.769531 175.648438 175.695312 C 175.515625 175.640625 175.449219 175.488281 175.503906 175.355469 C 175.558594 175.21875 175.710938 175.152344 175.84375 175.207031 C 178.625 176.316406 181.105469 178.289062 182.835938 180.753906 C 182.917969 180.875 182.890625 181.039062 182.773438 181.121094 C 182.726562 181.152344 182.671875 181.167969 182.621094 181.167969 " fill-opacity="1" fill-rule="nonzero"/><path fill="#ff66c4" d="M 186.207031 194.328125 C 186.191406 194.328125 186.179688 194.324219 186.164062 194.324219 C 186.019531 194.300781 185.921875 194.164062 185.945312 194.019531 C 186.238281 192.234375 186.957031 190.550781 188.03125 189.144531 C 188.117188 189.03125 188.285156 189.007812 188.398438 189.097656 C 188.515625 189.183594 188.539062 189.351562 188.449219 189.464844 C 187.429688 190.800781 186.746094 192.40625 186.46875 194.105469 C 186.445312 194.234375 186.332031 194.328125 186.207031 194.328125 " fill-opacity="1" fill-rule="nonzero"/><g clip-path="url(#7ff619f163)"><path fill="#ff66c4" d="M 192.8125 207.980469 C 192.71875 207.980469 192.628906 207.929688 192.582031 207.839844 C 190.671875 204.277344 188.847656 200.585938 187.164062 196.875 C 186.75 195.960938 186.347656 195.050781 185.964844 194.171875 C 185.960938 194.164062 185.960938 194.160156 185.957031 194.152344 C 185.707031 193.585938 185.460938 193.007812 185.222656 192.4375 C 185.039062 192.007812 184.859375 191.574219 184.683594 191.136719 C 184.0625 189.609375 183.644531 188.410156 183.332031 187.257812 C 183.210938 186.828125 183.109375 186.386719 183.019531 185.949219 C 182.953125 185.628906 182.890625 185.285156 182.835938 184.929688 C 182.75 184.390625 182.675781 183.808594 182.59375 183.050781 C 182.5625 182.78125 182.535156 182.511719 182.503906 182.246094 C 182.457031 181.808594 182.414062 181.371094 182.359375 180.9375 C 182.230469 179.882812 182.050781 178.640625 181.679688 177.414062 C 181.207031 175.832031 180.425781 174.304688 179.667969 172.828125 C 179.339844 172.191406 179.003906 171.53125 178.695312 170.875 C 178.683594 170.855469 178.667969 170.820312 178.652344 170.789062 C 178.425781 170.304688 178.230469 169.855469 178.0625 169.429688 C 178.019531 169.324219 177.980469 169.21875 177.941406 169.109375 C 177.894531 168.972656 177.964844 168.820312 178.101562 168.773438 C 178.238281 168.722656 178.390625 168.792969 178.4375 168.929688 C 178.472656 169.03125 178.511719 169.132812 178.554688 169.234375 C 178.714844 169.652344 178.90625 170.089844 179.132812 170.574219 C 179.144531 170.605469 179.15625 170.621094 179.164062 170.640625 C 179.476562 171.300781 179.8125 171.957031 180.136719 172.589844 C 180.90625 174.085938 181.699219 175.632812 182.1875 177.261719 C 182.566406 178.527344 182.75 179.796875 182.882812 180.875 C 182.9375 181.3125 182.980469 181.75 183.027344 182.1875 C 183.058594 182.457031 183.085938 182.722656 183.117188 182.992188 C 183.195312 183.742188 183.269531 184.316406 183.355469 184.847656 C 183.410156 185.195312 183.46875 185.527344 183.535156 185.839844 C 183.621094 186.269531 183.722656 186.699219 183.839844 187.121094 C 184.148438 188.253906 184.558594 189.429688 185.171875 190.9375 C 185.347656 191.375 185.527344 191.804688 185.707031 192.234375 C 185.949219 192.804688 186.199219 193.386719 186.449219 193.957031 C 186.449219 193.964844 186.453125 193.972656 186.457031 193.976562 C 186.835938 194.851562 187.234375 195.753906 187.644531 196.65625 C 189.324219 200.359375 191.140625 204.039062 193.042969 207.59375 C 193.113281 207.71875 193.066406 207.878906 192.9375 207.949219 C 192.898438 207.96875 192.855469 207.980469 192.8125 207.980469 " fill-opacity="1" fill-rule="nonzero"/></g><path fill="#ff66c4" d="M 184.925781 191.300781 C 184.917969 191.300781 184.914062 191.300781 184.90625 191.300781 C 184.761719 191.289062 184.652344 191.160156 184.664062 191.015625 C 184.75 189.945312 184.964844 189 185.320312 188.125 C 185.71875 187.152344 186.300781 186.269531 186.863281 185.417969 C 187.144531 184.988281 187.4375 184.546875 187.699219 184.101562 C 187.875 183.800781 188.035156 183.496094 188.175781 183.195312 C 188.238281 183.066406 188.394531 183.007812 188.527344 183.070312 C 188.660156 183.128906 188.714844 183.289062 188.652344 183.417969 C 188.507812 183.734375 188.339844 184.054688 188.152344 184.367188 C 187.886719 184.824219 187.589844 185.273438 187.300781 185.707031 C 186.753906 186.539062 186.1875 187.398438 185.808594 188.324219 C 185.472656 189.148438 185.269531 190.042969 185.1875 191.058594 C 185.179688 191.195312 185.0625 191.300781 184.925781 191.300781 " fill-opacity="1" fill-rule="nonzero"/><path fill="#ff66c4" d="M 187.402344 197.027344 C 187.320312 197.027344 187.238281 196.988281 187.1875 196.914062 C 187.105469 196.796875 187.132812 196.632812 187.253906 196.550781 C 188.472656 195.699219 189.34375 194.230469 189.644531 192.519531 C 189.914062 190.980469 189.777344 189.292969 189.199219 187.042969 C 189.027344 186.371094 188.824219 185.6875 188.632812 185.027344 C 188.472656 184.488281 188.308594 183.929688 188.160156 183.375 C 188.121094 183.234375 188.207031 183.089844 188.347656 183.054688 C 188.488281 183.015625 188.632812 183.097656 188.667969 183.238281 C 188.816406 183.789062 188.980469 184.34375 189.136719 184.878906 C 189.332031 185.542969 189.535156 186.230469 189.710938 186.914062 C 190.113281 188.476562 190.527344 190.539062 190.164062 192.609375 C 189.839844 194.460938 188.886719 196.050781 187.554688 196.980469 C 187.507812 197.011719 187.457031 197.027344 187.402344 197.027344 " fill-opacity="1" fill-rule="nonzero"/><path fill="#ff66c4" d="M 183.097656 185.152344 C 183.082031 185.152344 183.066406 185.152344 183.054688 185.148438 C 181.726562 184.929688 180.417969 183.992188 179.457031 182.574219 C 178.835938 181.652344 178.386719 180.625 177.953125 179.628906 C 177.757812 179.175781 177.554688 178.710938 177.339844 178.261719 C 176.789062 177.125 176.210938 176.265625 175.5625 175.640625 C 175.460938 175.539062 175.457031 175.371094 175.558594 175.269531 C 175.660156 175.164062 175.828125 175.160156 175.929688 175.261719 C 176.621094 175.933594 177.238281 176.839844 177.8125 178.035156 C 178.035156 178.492188 178.238281 178.960938 178.4375 179.417969 C 178.859375 180.390625 179.296875 181.398438 179.894531 182.28125 C 180.773438 183.578125 181.953125 184.433594 183.136719 184.628906 C 183.28125 184.652344 183.378906 184.789062 183.355469 184.933594 C 183.335938 185.0625 183.222656 185.152344 183.097656 185.152344 " fill-opacity="1" fill-rule="nonzero"/><path fill="#ff66c4" d="M 182.855469 183.285156 C 182.773438 183.285156 182.695312 183.246094 182.640625 183.175781 C 181.832031 182.070312 180.917969 181.042969 179.914062 180.121094 C 179.804688 180.023438 179.800781 179.855469 179.898438 179.75 C 179.996094 179.644531 180.164062 179.636719 180.269531 179.734375 C 181.296875 180.675781 182.238281 181.730469 183.066406 182.867188 C 183.152344 182.984375 183.125 183.148438 183.007812 183.234375 C 182.964844 183.269531 182.90625 183.285156 182.855469 183.285156 " fill-opacity="1" fill-rule="nonzero"/><path fill="#ff66c4" d="M 173.292969 173.652344 C 171.632812 173.652344 169.964844 173.121094 168.636719 172.128906 C 168.523438 172.042969 168.496094 171.882812 168.578125 171.765625 C 168.664062 171.648438 168.824219 171.621094 168.945312 171.703125 C 169.996094 172.429688 171.457031 172.082031 172.882812 171.597656 C 173.589844 171.355469 174.207031 171.117188 174.582031 170.636719 C 174.699219 170.488281 174.792969 170.320312 174.886719 170.136719 C 174.953125 170.015625 175.023438 169.890625 175.101562 169.769531 C 175.179688 169.644531 175.339844 169.609375 175.464844 169.6875 C 175.585938 169.765625 175.621094 169.925781 175.546875 170.050781 C 175.476562 170.15625 175.417969 170.269531 175.351562 170.386719 C 175.25 170.582031 175.140625 170.78125 174.996094 170.960938 C 174.496094 171.605469 173.695312 171.875 173.050781 172.09375 C 172.25 172.367188 171.433594 172.601562 170.660156 172.640625 C 171.90625 173.117188 173.285156 173.253906 174.59375 173.007812 C 176.1875 172.703125 177.65625 171.847656 178.726562 170.59375 C 178.734375 170.585938 178.742188 170.578125 178.75 170.570312 C 178.761719 170.558594 178.769531 170.550781 178.777344 170.539062 C 178.867188 170.425781 179.03125 170.40625 179.148438 170.496094 C 179.261719 170.585938 179.28125 170.75 179.191406 170.867188 C 179.171875 170.890625 179.148438 170.914062 179.128906 170.941406 L 179.128906 170.9375 C 179.125 170.945312 179.121094 170.949219 179.117188 170.953125 C 177.964844 172.285156 176.394531 173.199219 174.691406 173.523438 C 174.230469 173.613281 173.761719 173.652344 173.292969 173.652344 " fill-opacity="1" fill-rule="nonzero"/><path fill="#ff66c4" d="M 178.308594 169.597656 C 178.253906 169.597656 178.195312 169.578125 178.148438 169.542969 C 177.898438 169.351562 177.605469 169.230469 177.308594 169.191406 C 177.265625 169.1875 177.21875 169.183594 177.171875 169.179688 C 177.027344 169.175781 176.914062 169.050781 176.917969 168.90625 C 176.925781 168.761719 177.050781 168.648438 177.191406 168.652344 C 177.253906 168.65625 177.3125 168.664062 177.371094 168.667969 C 177.761719 168.71875 178.140625 168.875 178.46875 169.125 C 178.582031 169.210938 178.605469 169.375 178.519531 169.492188 C 178.464844 169.5625 178.386719 169.597656 178.308594 169.597656 " fill-opacity="1" fill-rule="nonzero"/><g clip-path="url(#872ad65057)"><path fill="#ff66c4" d="M 167.875 163.699219 C 167.734375 163.699219 167.636719 163.722656 167.582031 163.769531 C 167.445312 163.890625 167.554688 164.210938 167.710938 164.460938 C 169.226562 166.84375 172.027344 168.246094 174.273438 169.375 C 174.515625 169.496094 174.761719 169.621094 175.011719 169.648438 C 175.101562 169.660156 175.191406 169.660156 175.289062 169.648438 C 175.300781 169.644531 175.3125 169.644531 175.324219 169.644531 C 175.296875 169.625 175.269531 169.605469 175.246094 169.585938 C 174.710938 169.1875 174.300781 168.664062 173.902344 168.15625 C 173.816406 168.046875 173.730469 167.9375 173.644531 167.832031 C 172.726562 166.6875 171.664062 165.667969 170.484375 164.804688 C 169.839844 164.332031 168.980469 163.78125 168.050781 163.707031 C 168.007812 163.703125 167.964844 163.703125 167.925781 163.699219 C 167.90625 163.699219 167.890625 163.699219 167.875 163.699219 Z M 175.140625 170.183594 C 175.074219 170.183594 175.011719 170.179688 174.949219 170.171875 C 174.609375 170.132812 174.304688 169.980469 174.039062 169.84375 C 171.734375 168.6875 168.863281 167.25 167.265625 164.742188 C 166.914062 164.191406 166.902344 163.667969 167.234375 163.375 C 167.453125 163.183594 167.742188 163.167969 167.945312 163.175781 C 167.996094 163.175781 168.042969 163.179688 168.09375 163.183594 C 169.152344 163.265625 170.09375 163.867188 170.796875 164.382812 C 172.015625 165.273438 173.109375 166.320312 174.054688 167.5 C 174.144531 167.609375 174.230469 167.722656 174.316406 167.832031 C 174.710938 168.332031 175.082031 168.808594 175.5625 169.164062 C 175.625 169.214844 175.691406 169.257812 175.757812 169.300781 C 175.832031 169.347656 175.910156 169.386719 175.984375 169.425781 C 176.375 169.242188 176.726562 169.003906 176.996094 168.730469 C 177.058594 168.671875 177.117188 168.605469 177.175781 168.535156 C 177.269531 168.421875 177.433594 168.402344 177.546875 168.496094 C 177.660156 168.589844 177.675781 168.753906 177.585938 168.867188 C 177.511719 168.957031 177.4375 169.035156 177.367188 169.105469 C 177.054688 169.421875 176.648438 169.699219 176.191406 169.910156 L 176.097656 169.953125 C 176.097656 169.953125 176.09375 169.957031 176.089844 169.957031 C 175.820312 170.074219 175.578125 170.144531 175.351562 170.171875 C 175.28125 170.179688 175.210938 170.183594 175.140625 170.183594 " fill-opacity="1" fill-rule="nonzero"/></g><path fill="#ff66c4" d="M 193.425781 162.515625 C 193.332031 162.515625 193.242188 162.464844 193.195312 162.378906 C 193.121094 162.25 193.167969 162.089844 193.296875 162.019531 C 193.347656 161.992188 193.398438 161.964844 193.449219 161.929688 C 195.847656 160.53125 197.738281 159.078125 199.238281 157.492188 C 201.34375 155.265625 202.703125 152.722656 203.164062 150.136719 C 203.347656 149.101562 203.398438 148.015625 203.445312 146.964844 C 203.492188 145.933594 203.539062 144.871094 203.714844 143.851562 C 203.738281 143.707031 203.875 143.613281 204.019531 143.636719 C 204.160156 143.660156 204.257812 143.796875 204.234375 143.941406 C 204.0625 144.929688 204.015625 145.976562 203.96875 146.988281 C 203.921875 148.054688 203.871094 149.160156 203.679688 150.230469 C 203.203125 152.917969 201.796875 155.554688 199.621094 157.855469 C 198.085938 159.480469 196.15625 160.960938 193.726562 162.382812 C 193.675781 162.414062 193.613281 162.449219 193.550781 162.484375 C 193.511719 162.503906 193.46875 162.515625 193.425781 162.515625 " fill-opacity="1" fill-rule="nonzero"/><path fill="#ff66c4" d="M 193.402344 162.023438 C 193.261719 162.023438 193.148438 161.914062 193.140625 161.773438 C 193.128906 161.554688 193.121094 161.332031 193.125 161.089844 C 193.152344 158.378906 194.167969 155.644531 195.910156 153.59375 C 196.738281 152.613281 197.730469 151.773438 198.6875 150.960938 C 199.851562 149.976562 201.054688 148.957031 201.933594 147.707031 C 202.648438 146.699219 203.199219 145.496094 203.722656 143.816406 C 203.765625 143.679688 203.914062 143.601562 204.050781 143.644531 C 204.191406 143.6875 204.269531 143.835938 204.226562 143.972656 C 203.683594 145.710938 203.109375 146.953125 202.363281 148.011719 C 201.445312 149.3125 200.21875 150.355469 199.027344 151.363281 C 198.085938 152.164062 197.113281 152.988281 196.308594 153.933594 C 194.648438 155.894531 193.679688 158.503906 193.652344 161.09375 C 193.648438 161.324219 193.65625 161.539062 193.664062 161.746094 C 193.671875 161.894531 193.5625 162.015625 193.417969 162.023438 C 193.410156 162.023438 193.40625 162.023438 193.402344 162.023438 " fill-opacity="1" fill-rule="nonzero"/><path fill="#ff66c4" d="M 193.59375 162.417969 C 193.578125 162.417969 193.5625 162.414062 193.546875 162.414062 C 193.40625 162.390625 193.308594 162.253906 193.332031 162.109375 C 193.804688 159.300781 195.300781 156.632812 197.429688 154.796875 C 197.542969 154.699219 197.707031 154.714844 197.804688 154.824219 C 197.898438 154.933594 197.886719 155.101562 197.777344 155.195312 C 195.734375 156.953125 194.304688 159.507812 193.851562 162.195312 C 193.828125 162.324219 193.71875 162.417969 193.59375 162.417969 " fill-opacity="1" fill-rule="nonzero"/><path fill="#ff66c4" d="M 190.542969 173.449219 C 191.496094 174.144531 192.316406 174.457031 193.113281 174.417969 C 194.3125 174.363281 195.320312 173.5 195.957031 172.785156 C 196.851562 171.777344 197.53125 170.566406 197.921875 169.28125 C 198.074219 168.777344 198.1875 168.25 198.296875 167.742188 C 198.351562 167.488281 198.410156 167.230469 198.46875 166.972656 C 197.304688 168.503906 195.898438 169.859375 194.335938 170.953125 C 193.8125 171.320312 193.261719 171.667969 192.726562 172 C 192.023438 172.441406 191.292969 172.898438 190.628906 173.40625 C 190.601562 173.425781 190.574219 173.441406 190.542969 173.449219 Z M 192.988281 174.949219 C 191.800781 174.949219 190.792969 174.296875 190.128906 173.796875 C 190.015625 173.710938 189.992188 173.546875 190.078125 173.429688 C 190.121094 173.375 190.175781 173.339844 190.238281 173.328125 C 190.171875 173.214844 190.203125 173.070312 190.308594 172.988281 C 190.992188 172.464844 191.734375 172 192.449219 171.554688 C 192.976562 171.222656 193.519531 170.882812 194.035156 170.523438 C 196.035156 169.121094 197.769531 167.28125 199.050781 165.191406 C 199.125 165.074219 199.277344 165.03125 199.398438 165.097656 C 199.523438 165.164062 199.574219 165.3125 199.515625 165.4375 C 199.171875 166.195312 198.996094 167 198.8125 167.851562 C 198.699219 168.371094 198.585938 168.910156 198.425781 169.433594 C 198.011719 170.792969 197.292969 172.074219 196.351562 173.132812 C 195.648438 173.925781 194.519531 174.878906 193.136719 174.945312 C 193.085938 174.949219 193.039062 174.949219 192.988281 174.949219 " fill-opacity="1" fill-rule="nonzero"/><path fill="#ff66c4" d="M 189.902344 143.441406 Z M 187.058594 145.105469 C 186.996094 145.105469 186.9375 145.101562 186.875 145.101562 C 185.527344 145.046875 184.304688 144.402344 183.285156 143.78125 C 183.160156 143.707031 183.121094 143.542969 183.195312 143.421875 C 183.269531 143.296875 183.433594 143.257812 183.558594 143.332031 C 184.519531 143.917969 185.667969 144.523438 186.898438 144.574219 C 187.917969 144.613281 188.953125 144.253906 189.742188 143.582031 C 189.800781 143.53125 189.855469 143.484375 189.90625 143.433594 C 189.910156 143.429688 189.917969 143.421875 189.925781 143.417969 C 190.015625 143.324219 190.164062 143.308594 190.273438 143.390625 C 190.386719 143.476562 190.410156 143.640625 190.324219 143.757812 C 190.304688 143.785156 190.28125 143.804688 190.265625 143.820312 C 190.207031 143.878906 190.140625 143.933594 190.078125 143.984375 C 189.242188 144.699219 188.148438 145.105469 187.058594 145.105469 " fill-opacity="1" fill-rule="nonzero"/><path fill="#ff66c4" d="M 183.417969 143.820312 C 183.378906 143.820312 183.339844 143.8125 183.300781 143.792969 C 183.113281 143.699219 182.929688 143.582031 182.753906 143.449219 C 182.640625 143.367188 182.613281 143.207031 182.695312 143.089844 C 182.777344 142.972656 182.933594 142.941406 183.054688 143.019531 C 183.21875 143.125 183.386719 143.226562 183.558594 143.332031 C 183.679688 143.40625 183.71875 143.5625 183.652344 143.683594 C 183.601562 143.769531 183.511719 143.820312 183.417969 143.820312 " fill-opacity="1" fill-rule="nonzero"/><path fill="#ff66c4" d="M 185.023438 144.199219 C 184.433594 144.199219 183.835938 144.0625 183.300781 143.792969 C 183.171875 143.726562 183.121094 143.570312 183.183594 143.4375 C 183.25 143.308594 183.410156 143.257812 183.539062 143.320312 C 184.363281 143.738281 185.355469 143.785156 186.191406 143.449219 C 186.492188 143.332031 186.773438 143.164062 187.074219 142.988281 C 187.257812 142.882812 187.449219 142.769531 187.648438 142.667969 C 187.664062 142.660156 187.6875 142.644531 187.726562 142.636719 C 187.867188 142.601562 188.011719 142.6875 188.046875 142.828125 C 188.078125 142.957031 188.007812 143.089844 187.886719 143.136719 C 187.695312 143.234375 187.515625 143.339844 187.339844 143.445312 C 187.039062 143.621094 186.726562 143.804688 186.386719 143.941406 C 185.957031 144.113281 185.492188 144.199219 185.023438 144.199219 " fill-opacity="1" fill-rule="nonzero"/><path fill="#ff66c4" d="M 187.789062 143.152344 C 187.695312 143.152344 187.601562 143.101562 187.554688 143.007812 C 187.488281 142.878906 187.542969 142.722656 187.671875 142.65625 C 188.324219 142.324219 188.917969 142.214844 189.4375 142.328125 C 189.660156 142.378906 189.871094 142.480469 190.054688 142.621094 C 190.070312 142.632812 190.085938 142.644531 190.097656 142.65625 C 190.199219 142.757812 190.199219 142.925781 190.097656 143.027344 C 190.003906 143.121094 189.859375 143.128906 189.757812 143.058594 C 189.75 143.050781 189.742188 143.046875 189.734375 143.039062 C 189.613281 142.945312 189.472656 142.875 189.324219 142.84375 C 188.925781 142.753906 188.449219 142.851562 187.910156 143.125 C 187.871094 143.144531 187.828125 143.152344 187.789062 143.152344 " fill-opacity="1" fill-rule="nonzero"/><path fill="#ff66c4" d="M 190.105469 143.300781 C 190.039062 143.300781 189.96875 143.273438 189.917969 143.21875 C 189.90625 143.210938 189.898438 143.199219 189.890625 143.1875 C 189.855469 143.148438 189.816406 143.109375 189.777344 143.074219 C 189.667969 142.980469 189.65625 142.816406 189.75 142.703125 C 189.847656 142.59375 190.011719 142.582031 190.125 142.675781 C 190.183594 142.730469 190.242188 142.789062 190.296875 142.851562 C 190.320312 142.878906 190.339844 142.90625 190.351562 142.9375 C 190.394531 143.039062 190.367188 143.15625 190.289062 143.230469 C 190.238281 143.277344 190.171875 143.300781 190.105469 143.300781 " fill-opacity="1" fill-rule="nonzero"/><path fill="#ff66c4" d="M 190.414062 143.742188 C 190.332031 143.742188 190.246094 143.699219 190.195312 143.621094 C 190.144531 143.542969 190.09375 143.460938 190.046875 143.382812 C 189.972656 143.257812 190.015625 143.09375 190.140625 143.023438 C 190.265625 142.949219 190.425781 142.988281 190.5 143.113281 C 190.542969 143.1875 190.589844 143.261719 190.636719 143.332031 C 190.714844 143.453125 190.683594 143.617188 190.5625 143.699219 C 190.515625 143.726562 190.464844 143.742188 190.414062 143.742188 " fill-opacity="1" fill-rule="nonzero"/><path fill="#ff66c4" d="M 190.285156 142.886719 Z M 194.085938 145.964844 C 193.90625 145.964844 193.722656 145.953125 193.539062 145.925781 C 192.246094 145.726562 191.027344 144.886719 190.199219 143.621094 C 190.117188 143.5 190.152344 143.335938 190.273438 143.257812 C 190.394531 143.179688 190.558594 143.210938 190.636719 143.332031 C 191.386719 144.472656 192.472656 145.230469 193.617188 145.402344 C 194.628906 145.558594 195.648438 145.207031 196.300781 144.550781 C 195.894531 144.640625 195.449219 144.625 195.015625 144.496094 C 194.839844 144.445312 194.660156 144.375 194.464844 144.277344 C 194.046875 144.0625 193.640625 143.761719 193.148438 143.300781 L 193.066406 143.226562 C 192.75 142.925781 192.417969 142.613281 192.03125 142.53125 C 191.804688 142.484375 191.554688 142.511719 191.359375 142.539062 C 190.941406 142.601562 190.570312 142.722656 190.285156 142.890625 C 190.28125 142.890625 190.277344 142.894531 190.273438 142.898438 C 190.269531 142.898438 190.265625 142.902344 190.261719 142.902344 C 190.195312 142.945312 190.132812 142.984375 190.074219 143.03125 C 190.027344 143.074219 189.964844 143.097656 189.898438 143.097656 C 189.753906 143.097656 189.636719 142.980469 189.636719 142.835938 C 189.636719 142.75 189.675781 142.675781 189.734375 142.628906 C 189.8125 142.5625 189.898438 142.507812 189.988281 142.453125 C 190.003906 142.445312 190.019531 142.433594 190.035156 142.425781 C 190.359375 142.234375 190.796875 142.09375 191.28125 142.019531 C 191.519531 141.984375 191.832031 141.949219 192.140625 142.015625 C 192.671875 142.128906 193.074219 142.507812 193.429688 142.84375 L 193.507812 142.917969 C 193.964844 143.34375 194.332031 143.617188 194.703125 143.804688 C 194.867188 143.886719 195.019531 143.949219 195.164062 143.992188 C 195.816406 144.1875 196.492188 144.0625 196.890625 143.679688 C 196.980469 143.59375 197.117188 143.582031 197.21875 143.652344 C 197.324219 143.722656 197.363281 143.855469 197.316406 143.96875 C 196.816406 145.171875 195.488281 145.964844 194.085938 145.964844 " fill-opacity="1" fill-rule="nonzero"/><path fill="#ff66c4" d="M 187.789062 143.15625 C 187.75 143.15625 187.714844 143.144531 187.679688 143.128906 C 186.234375 142.621094 184.859375 141.8125 183.707031 140.789062 C 183.066406 140.222656 182.488281 139.589844 181.996094 138.90625 C 181.722656 138.53125 181.464844 138.113281 181.445312 137.625 C 181.425781 137.085938 181.796875 136.484375 182.382812 136.445312 C 182.699219 136.425781 182.96875 136.574219 183.203125 136.699219 L 183.222656 136.710938 C 184.144531 137.207031 185.140625 137.546875 186.1875 137.714844 C 186.464844 137.761719 186.742188 137.792969 187.011719 137.8125 C 187.253906 137.828125 187.503906 137.839844 187.742188 137.847656 C 188.3125 137.867188 188.902344 137.886719 189.476562 138.019531 C 190.453125 138.246094 191.351562 138.820312 192.007812 139.644531 C 192.097656 139.757812 192.078125 139.921875 191.964844 140.011719 C 191.851562 140.105469 191.6875 140.085938 191.597656 139.972656 C 191.011719 139.242188 190.21875 138.730469 189.355469 138.53125 C 188.832031 138.410156 188.296875 138.390625 187.726562 138.371094 C 187.480469 138.363281 187.226562 138.355469 186.972656 138.339844 C 186.6875 138.316406 186.394531 138.285156 186.101562 138.238281 C 185 138.058594 183.949219 137.699219 182.972656 137.171875 L 182.953125 137.164062 C 182.761719 137.058594 182.582031 136.960938 182.414062 136.972656 C 182.152344 136.988281 181.960938 137.320312 181.972656 137.605469 C 181.988281 137.953125 182.195312 138.289062 182.421875 138.597656 C 182.894531 139.25 183.441406 139.851562 184.054688 140.394531 C 185.164062 141.375 186.484375 142.15625 187.875 142.640625 C 187.984375 142.679688 188.054688 142.777344 188.054688 142.890625 C 188.054688 143.035156 187.933594 143.15625 187.789062 143.15625 " fill-opacity="1" fill-rule="nonzero"/><path fill="#ff66c4" d="M 188.03125 160.152344 C 187.953125 160.152344 187.875 160.121094 187.824219 160.054688 C 187.734375 159.941406 187.75 159.773438 187.863281 159.683594 C 188.335938 159.304688 188.691406 158.964844 188.992188 158.605469 C 189.632812 157.835938 189.964844 156.972656 189.933594 156.179688 C 189.914062 155.699219 189.707031 155.0625 189.1875 154.832031 C 188.898438 154.703125 188.550781 154.722656 188.1875 154.742188 C 187.863281 154.761719 187.53125 154.78125 187.195312 154.699219 C 186.519531 154.535156 186.035156 154.007812 185.605469 153.542969 C 185.546875 153.480469 185.492188 153.421875 185.433594 153.359375 C 184.855469 152.746094 184.332031 152.480469 183.867188 152.566406 C 183.617188 152.609375 183.382812 152.757812 183.152344 152.902344 L 182.464844 153.335938 C 182.34375 153.414062 182.179688 153.378906 182.101562 153.253906 C 182.023438 153.128906 182.0625 152.96875 182.1875 152.890625 L 182.871094 152.457031 C 183.128906 152.292969 183.421875 152.109375 183.773438 152.046875 C 184.421875 151.925781 185.109375 152.246094 185.820312 153 C 185.875 153.0625 185.933594 153.125 185.992188 153.1875 C 186.390625 153.617188 186.800781 154.0625 187.320312 154.1875 C 187.578125 154.25 187.859375 154.234375 188.160156 154.21875 C 188.570312 154.195312 188.992188 154.171875 189.398438 154.351562 C 190.011719 154.621094 190.425781 155.328125 190.460938 156.15625 C 190.5 157.082031 190.121094 158.074219 189.394531 158.945312 C 189.078125 159.324219 188.6875 159.699219 188.195312 160.09375 C 188.144531 160.132812 188.085938 160.152344 188.03125 160.152344 " fill-opacity="1" fill-rule="nonzero"/><path fill="#ff66c4" d="M 170.90625 160.9375 C 170.851562 160.9375 170.792969 160.921875 170.746094 160.886719 C 170.460938 160.671875 170.210938 160.425781 170.003906 160.214844 C 169.523438 159.726562 169.183594 159.296875 168.9375 158.867188 C 168.664062 158.390625 168.515625 157.925781 168.488281 157.453125 C 168.402344 156.050781 169.554688 154.71875 170.953125 154.601562 C 171.257812 154.574219 171.558594 154.601562 171.808594 154.632812 C 171.890625 154.640625 171.96875 154.652344 172.050781 154.664062 C 172.34375 154.703125 172.621094 154.738281 172.898438 154.734375 C 173.902344 154.710938 174.859375 154.09375 175.628906 153.601562 C 176.0625 153.324219 176.871094 152.808594 177.652344 153.078125 C 178.265625 153.292969 178.675781 153.921875 178.84375 154.898438 C 178.9375 155.441406 178.976562 155.996094 178.957031 156.546875 C 178.953125 156.691406 178.832031 156.804688 178.6875 156.800781 C 178.539062 156.796875 178.425781 156.671875 178.429688 156.527344 C 178.449219 156.015625 178.414062 155.496094 178.324219 154.988281 C 178.230469 154.445312 178.007812 153.761719 177.476562 153.574219 C 176.980469 153.402344 176.410156 153.726562 175.914062 154.046875 C 175.089844 154.574219 174.0625 155.234375 172.910156 155.261719 C 172.59375 155.269531 172.28125 155.226562 171.980469 155.1875 C 171.902344 155.175781 171.824219 155.164062 171.746094 155.15625 C 171.519531 155.128906 171.253906 155.105469 170.996094 155.125 C 169.890625 155.21875 168.945312 156.3125 169.011719 157.421875 C 169.035156 157.8125 169.164062 158.199219 169.394531 158.605469 C 169.617188 158.996094 169.929688 159.390625 170.378906 159.847656 C 170.574219 160.042969 170.804688 160.269531 171.0625 160.464844 C 171.179688 160.550781 171.203125 160.71875 171.117188 160.832031 C 171.0625 160.902344 170.984375 160.9375 170.90625 160.9375 " fill-opacity="1" fill-rule="nonzero"/><path fill="#ff66c4" d="M 182.261719 153.367188 Z M 182.324219 153.378906 Z M 182.902344 158.472656 C 182.839844 158.472656 182.777344 158.449219 182.726562 158.402344 C 182.617188 158.304688 182.609375 158.140625 182.707031 158.03125 C 183.226562 157.453125 183.550781 156.875 183.703125 156.261719 C 183.980469 155.132812 183.4375 153.660156 182.285156 153.375 C 182.277344 153.371094 182.269531 153.371094 182.265625 153.371094 C 182.035156 153.316406 181.796875 153.304688 181.542969 153.292969 C 181.265625 153.28125 180.976562 153.269531 180.6875 153.195312 C 180.113281 153.046875 179.65625 152.691406 179.214844 152.34375 C 178.929688 152.121094 178.65625 151.910156 178.359375 151.753906 C 177.507812 151.304688 176.402344 151.363281 175.601562 151.898438 C 175.246094 152.140625 174.949219 152.460938 174.636719 152.800781 C 174.566406 152.875 174.496094 152.953125 174.421875 153.03125 C 173.675781 153.824219 172.832031 154.527344 171.921875 155.117188 C 171.800781 155.195312 171.636719 155.160156 171.558594 155.039062 C 171.476562 154.914062 171.511719 154.753906 171.636719 154.671875 C 172.511719 154.105469 173.320312 153.433594 174.039062 152.667969 C 174.109375 152.59375 174.179688 152.519531 174.25 152.441406 C 174.570312 152.097656 174.898438 151.738281 175.308594 151.460938 C 176.265625 150.820312 177.589844 150.75 178.605469 151.289062 C 178.945312 151.464844 179.246094 151.703125 179.539062 151.929688 C 179.957031 152.257812 180.351562 152.566406 180.820312 152.6875 C 181.054688 152.746094 181.300781 152.757812 181.566406 152.769531 C 181.828125 152.777344 182.097656 152.789062 182.371094 152.855469 C 182.386719 152.855469 182.402344 152.859375 182.417969 152.863281 C 183.898438 153.238281 184.554688 155.019531 184.214844 156.386719 C 184.042969 157.078125 183.667969 157.75 183.097656 158.382812 C 183.046875 158.441406 182.972656 158.472656 182.902344 158.472656 " fill-opacity="1" fill-rule="nonzero"/><path fill="#ff66c4" d="M 168.070312 163.707031 C 168.003906 163.707031 167.941406 163.683594 167.890625 163.636719 C 167.648438 163.402344 167.453125 163.15625 167.3125 162.898438 C 166.894531 162.144531 166.914062 161.035156 167.660156 160.480469 C 167.78125 160.390625 167.90625 160.328125 168.027344 160.265625 C 168.125 160.214844 168.21875 160.167969 168.300781 160.109375 C 168.625 159.886719 168.847656 159.453125 168.894531 158.949219 C 168.902344 158.875 168.902344 158.804688 168.902344 158.734375 C 168.902344 158.589844 169.023438 158.472656 169.167969 158.472656 C 169.3125 158.472656 169.429688 158.589844 169.429688 158.734375 C 169.429688 158.824219 169.425781 158.910156 169.417969 158.996094 C 169.359375 159.664062 169.058594 160.230469 168.597656 160.546875 C 168.488281 160.621094 168.375 160.675781 168.269531 160.734375 C 168.160156 160.789062 168.058594 160.839844 167.972656 160.902344 C 167.464844 161.28125 167.472656 162.101562 167.773438 162.644531 C 167.890625 162.855469 168.050781 163.0625 168.253906 163.253906 C 168.359375 163.355469 168.363281 163.523438 168.261719 163.628906 C 168.210938 163.683594 168.140625 163.707031 168.070312 163.707031 " fill-opacity="1" fill-rule="nonzero"/><g clip-path="url(#d1c1608133)"><path fill="#ff66c4" d="M 194.632812 144.304688 C 194.617188 144.304688 194.601562 144.304688 194.582031 144.304688 C 194.4375 144.300781 194.320312 144.183594 194.320312 144.039062 C 194.320312 143.894531 194.433594 143.769531 194.585938 143.777344 C 196.054688 143.78125 197.449219 143.4375 198.613281 142.769531 C 200.613281 141.621094 201.9375 139.597656 203.222656 137.640625 C 203.914062 136.589844 204.621094 135.515625 205.4375 134.558594 L 200.734375 137.496094 C 199.785156 138.089844 198.707031 138.761719 197.507812 138.980469 C 196.984375 139.078125 196.457031 139.085938 196.011719 139.078125 C 195.90625 139.078125 195.808594 139.078125 195.707031 139.074219 L 195.558594 139.074219 C 194.9375 139.058594 194.296875 139.046875 193.683594 139.171875 C 193.074219 139.292969 192.484375 139.585938 191.96875 140.007812 C 191.140625 140.691406 190.574219 141.675781 190.414062 142.703125 C 190.390625 142.847656 190.253906 142.945312 190.113281 142.921875 C 189.96875 142.898438 189.871094 142.765625 189.890625 142.621094 C 190.074219 141.46875 190.707031 140.367188 191.632812 139.605469 C 192.214844 139.125 192.886719 138.796875 193.578125 138.65625 C 194.246094 138.519531 194.917969 138.53125 195.566406 138.546875 L 195.714844 138.546875 C 195.816406 138.550781 195.914062 138.550781 196.015625 138.550781 C 196.4375 138.558594 196.933594 138.550781 197.410156 138.464844 C 198.515625 138.261719 199.5 137.644531 200.453125 137.050781 L 207.714844 132.511719 C 207.839844 132.4375 208 132.472656 208.078125 132.597656 C 208.15625 132.71875 208.117188 132.878906 207.996094 132.957031 C 206.152344 134.140625 204.886719 136.066406 203.664062 137.929688 C 202.347656 139.9375 200.984375 142.015625 198.875 143.226562 C 197.648438 143.929688 196.179688 144.304688 194.632812 144.304688 " fill-opacity="1" fill-rule="nonzero"/></g><path fill="#ff66c4" d="M 196.015625 139.078125 C 195.933594 139.078125 195.855469 139.042969 195.804688 138.972656 C 195.714844 138.855469 195.738281 138.691406 195.855469 138.605469 C 195.90625 138.566406 195.953125 138.527344 196 138.488281 C 196.535156 138.050781 197.046875 137.578125 197.539062 137.125 C 198.378906 136.34375 199.25 135.53125 200.242188 134.898438 C 201.050781 134.378906 201.925781 134.019531 202.773438 133.855469 C 203.75 133.664062 204.652344 133.726562 205.457031 134.046875 C 205.59375 134.101562 205.660156 134.253906 205.605469 134.390625 C 205.550781 134.527344 205.398438 134.59375 205.261719 134.539062 C 204.554688 134.253906 203.75 134.199219 202.875 134.375 C 202.089844 134.527344 201.28125 134.859375 200.527344 135.339844 C 199.574219 135.953125 198.722656 136.742188 197.894531 137.507812 C 197.398438 137.972656 196.882812 138.449219 196.34375 138.890625 C 196.28125 138.941406 196.226562 138.984375 196.171875 139.027344 C 196.125 139.0625 196.070312 139.078125 196.015625 139.078125 " fill-opacity="1" fill-rule="nonzero"/><path fill="#ff66c4" d="M 195.5625 139.074219 C 195.425781 139.074219 195.3125 138.96875 195.300781 138.832031 C 195.171875 137.476562 195.5 136.121094 196.222656 135.027344 C 196.59375 134.464844 197.058594 133.972656 197.507812 133.492188 C 198.144531 132.820312 198.742188 132.179688 199.085938 131.378906 C 199.257812 130.984375 199.347656 130.417969 199.035156 130.136719 C 198.773438 129.898438 198.320312 129.921875 197.648438 130.203125 C 197.445312 130.289062 197.242188 130.378906 197.035156 130.46875 C 196.078125 130.882812 195.089844 131.3125 194.066406 131.472656 C 193.953125 131.488281 193.832031 131.503906 193.707031 131.515625 C 193.316406 131.546875 192.953125 131.535156 192.597656 131.480469 C 192.089844 131.402344 191.609375 131.226562 191.140625 131.0625 C 190.59375 130.863281 190.074219 130.679688 189.53125 130.636719 C 188.285156 130.546875 186.984375 131.292969 186.300781 132.496094 C 185.703125 133.550781 185.558594 134.941406 185.910156 136.3125 C 185.917969 136.347656 185.921875 136.363281 185.925781 136.382812 C 185.925781 136.382812 185.929688 136.398438 185.929688 136.398438 C 185.996094 136.648438 186.082031 136.90625 186.164062 137.15625 C 186.246094 137.402344 186.328125 137.652344 186.398438 137.90625 C 186.4375 138.046875 186.351562 138.191406 186.214844 138.230469 C 186.074219 138.269531 185.925781 138.1875 185.890625 138.046875 C 185.824219 137.804688 185.742188 137.558594 185.664062 137.320312 C 185.578125 137.0625 185.492188 136.796875 185.421875 136.535156 C 185.410156 136.488281 185.402344 136.460938 185.394531 136.429688 C 185.015625 134.941406 185.175781 133.40625 185.84375 132.234375 C 186.625 130.855469 188.125 130.003906 189.570312 130.113281 C 190.1875 130.160156 190.761719 130.367188 191.320312 130.566406 C 191.78125 130.730469 192.222656 130.886719 192.679688 130.960938 C 192.992188 131.011719 193.316406 131.019531 193.664062 130.988281 C 193.773438 130.980469 193.882812 130.964844 193.988281 130.949219 C 194.941406 130.804688 195.898438 130.386719 196.828125 129.984375 C 197.03125 129.894531 197.238281 129.804688 197.441406 129.71875 C 197.765625 129.582031 198.753906 129.164062 199.390625 129.746094 C 199.90625 130.214844 199.820312 131.003906 199.570312 131.585938 C 199.191406 132.472656 198.53125 133.175781 197.890625 133.855469 C 197.457031 134.316406 197.007812 134.792969 196.664062 135.316406 C 196.003906 136.3125 195.707031 137.546875 195.824219 138.785156 C 195.835938 138.929688 195.730469 139.058594 195.585938 139.070312 C 195.578125 139.074219 195.570312 139.074219 195.5625 139.074219 " fill-opacity="1" fill-rule="nonzero"/><path fill="#ff66c4" d="M 182.488281 141.050781 C 181.792969 141.050781 181.074219 140.917969 180.386719 140.660156 C 179.039062 140.144531 177.78125 139.183594 176.542969 137.71875 C 175.332031 136.28125 174.871094 134.96875 175.179688 133.8125 C 175.222656 133.652344 175.292969 133.453125 175.476562 133.328125 C 175.890625 133.054688 176.355469 133.421875 176.53125 133.5625 C 177.386719 134.238281 178.566406 134.554688 179.679688 134.40625 C 179.96875 134.371094 180.25 134.300781 180.515625 134.207031 C 180.621094 134.167969 180.726562 134.125 180.832031 134.082031 C 181.125 133.964844 181.425781 133.839844 181.761719 133.800781 C 181.949219 133.777344 182.140625 133.78125 182.332031 133.808594 C 183.207031 133.941406 183.964844 134.605469 184.601562 135.210938 C 184.945312 135.539062 185.351562 135.902344 185.785156 136.152344 C 185.910156 136.222656 185.957031 136.382812 185.882812 136.511719 C 185.8125 136.636719 185.648438 136.679688 185.523438 136.609375 C 185.039062 136.332031 184.605469 135.941406 184.242188 135.59375 C 183.632812 135.015625 182.976562 134.441406 182.253906 134.328125 C 182.109375 134.308594 181.964844 134.304688 181.824219 134.320312 C 181.5625 134.355469 181.304688 134.457031 181.03125 134.570312 C 180.917969 134.617188 180.808594 134.660156 180.695312 134.703125 C 180.394531 134.8125 180.074219 134.886719 179.746094 134.929688 C 178.476562 135.097656 177.183594 134.75 176.207031 133.972656 C 175.910156 133.738281 175.804688 133.742188 175.769531 133.765625 C 175.742188 133.785156 175.714844 133.847656 175.6875 133.949219 C 175.429688 134.925781 175.851562 136.078125 176.945312 137.375 C 178.125 138.773438 179.3125 139.6875 180.574219 140.167969 C 181.636719 140.570312 182.816406 140.632812 183.808594 140.339844 C 183.945312 140.296875 184.09375 140.375 184.132812 140.515625 C 184.175781 140.65625 184.09375 140.800781 183.957031 140.84375 C 183.488281 140.980469 182.992188 141.050781 182.488281 141.050781 " fill-opacity="1" fill-rule="nonzero"/><path fill="#ff66c4" d="M 182.292969 134.332031 C 182.148438 134.332031 182.03125 134.214844 182.027344 134.070312 C 182.027344 133.648438 182.027344 133.226562 182.027344 132.804688 C 182.027344 132.019531 182.027344 131.046875 182.464844 130.234375 C 183.035156 129.175781 184.222656 128.511719 186.09375 128.210938 C 186.304688 128.175781 186.511719 128.144531 186.726562 128.113281 C 187.636719 127.980469 188.578125 127.839844 189.367188 127.4375 C 189.542969 127.347656 189.707031 127.25 189.851562 127.144531 C 190.015625 127.023438 190.167969 126.890625 190.335938 126.75 C 190.851562 126.304688 191.394531 125.847656 192.105469 125.875 C 193.296875 125.914062 193.886719 127.21875 194.03125 128.320312 C 194.15625 129.308594 194.128906 130.3125 193.945312 131.300781 C 193.917969 131.445312 193.777344 131.535156 193.636719 131.511719 C 193.492188 131.484375 193.398438 131.347656 193.425781 131.203125 C 193.601562 130.269531 193.628906 129.320312 193.507812 128.390625 C 193.414062 127.664062 193.007812 126.433594 192.085938 126.398438 C 191.578125 126.382812 191.140625 126.753906 190.679688 127.148438 C 190.511719 127.292969 190.339844 127.4375 190.164062 127.570312 C 189.996094 127.691406 189.808594 127.804688 189.605469 127.910156 C 188.742188 128.347656 187.753906 128.492188 186.800781 128.632812 C 186.59375 128.664062 186.386719 128.695312 186.179688 128.730469 C 184.480469 129.007812 183.417969 129.578125 182.929688 130.480469 C 182.554688 131.179688 182.554688 132.042969 182.554688 132.804688 C 182.554688 133.226562 182.554688 133.644531 182.554688 134.066406 C 182.554688 134.210938 182.4375 134.332031 182.292969 134.332031 " fill-opacity="1" fill-rule="nonzero"/><path fill="#ff66c4" d="M 202.824219 134.378906 C 202.769531 134.378906 202.714844 134.363281 202.667969 134.328125 C 202.550781 134.242188 202.523438 134.078125 202.609375 133.960938 C 202.828125 133.664062 203.007812 133.382812 203.164062 133.101562 C 203.582031 132.347656 204.03125 131.195312 203.800781 129.972656 C 203.59375 128.882812 202.789062 127.964844 201.84375 127.742188 C 201.71875 127.714844 201.589844 127.695312 201.449219 127.671875 C 201.09375 127.621094 200.726562 127.5625 200.40625 127.335938 C 199.953125 127.015625 199.800781 126.507812 199.652344 126.015625 C 199.550781 125.679688 199.457031 125.363281 199.273438 125.121094 C 198.808594 124.507812 197.824219 124.492188 197.089844 124.796875 C 196.722656 124.953125 196.378906 125.167969 196.070312 125.445312 C 195.375 126.0625 194.839844 126.957031 194.558594 127.972656 C 194.3125 128.871094 194.226562 129.898438 194.289062 131.195312 C 194.296875 131.34375 194.1875 131.464844 194.039062 131.472656 C 193.890625 131.484375 193.773438 131.367188 193.765625 131.222656 C 193.695312 129.863281 193.789062 128.789062 194.050781 127.832031 C 194.359375 126.71875 194.949219 125.734375 195.71875 125.050781 C 196.074219 124.738281 196.46875 124.488281 196.890625 124.3125 C 197.777344 123.941406 199.035156 123.9375 199.691406 124.804688 C 199.933594 125.121094 200.046875 125.5 200.15625 125.863281 C 200.285156 126.289062 200.40625 126.691406 200.710938 126.90625 C 200.929688 127.0625 201.21875 127.105469 201.527344 127.152344 C 201.671875 127.171875 201.820312 127.195312 201.964844 127.230469 C 203.125 127.503906 204.070312 128.566406 204.320312 129.875 C 204.578125 131.25 204.085938 132.527344 203.625 133.359375 C 203.457031 133.65625 203.265625 133.957031 203.035156 134.269531 C 202.984375 134.339844 202.90625 134.378906 202.824219 134.378906 " fill-opacity="1" fill-rule="nonzero"/><path fill="#ff66c4" d="M 179.714844 134.933594 C 179.632812 134.933594 179.554688 134.898438 179.503906 134.828125 L 179.078125 134.261719 C 178.59375 133.617188 178.109375 132.96875 177.628906 132.320312 C 176.878906 131.324219 176.027344 130.1875 175.785156 128.824219 C 175.546875 127.488281 176.117188 125.808594 177.484375 125.316406 C 178.253906 125.039062 179.050781 125.191406 179.820312 125.339844 C 180.148438 125.402344 180.488281 125.46875 180.8125 125.496094 C 181.550781 125.5625 182.308594 125.429688 182.996094 125.117188 C 183.222656 125.015625 183.441406 124.890625 183.652344 124.75 C 183.910156 124.570312 184.167969 124.355469 184.410156 124.148438 C 184.96875 123.675781 185.542969 123.1875 186.289062 123.019531 C 187.816406 122.675781 189.28125 123.9375 189.691406 125.332031 C 189.902344 126.046875 189.917969 126.851562 189.746094 127.726562 C 189.714844 127.867188 189.578125 127.960938 189.433594 127.933594 C 189.292969 127.902344 189.199219 127.765625 189.226562 127.621094 C 189.386719 126.832031 189.371094 126.113281 189.183594 125.476562 C 188.761719 124.035156 187.40625 123.308594 186.402344 123.535156 C 185.785156 123.671875 185.285156 124.097656 184.753906 124.546875 C 184.496094 124.765625 184.230469 124.992188 183.949219 125.183594 C 183.714844 125.34375 183.46875 125.484375 183.214844 125.597656 C 182.445312 125.945312 181.597656 126.09375 180.765625 126.019531 C 180.414062 125.992188 180.0625 125.921875 179.722656 125.855469 C 178.988281 125.714844 178.296875 125.582031 177.664062 125.8125 C 176.558594 126.210938 176.105469 127.609375 176.304688 128.734375 C 176.523438 129.972656 177.335938 131.054688 178.050781 132.007812 C 178.53125 132.65625 179.015625 133.300781 179.5 133.945312 L 179.925781 134.511719 C 180.011719 134.628906 179.988281 134.792969 179.871094 134.878906 C 179.824219 134.914062 179.769531 134.933594 179.714844 134.933594 " fill-opacity="1" fill-rule="nonzero"/><g clip-path="url(#6eee3363d4)"><path fill="#ff66c4" d="M 183.105469 125.621094 C 183.082031 125.621094 183.058594 125.617188 183.039062 125.613281 C 182.898438 125.574219 182.8125 125.429688 182.851562 125.289062 C 182.894531 125.125 182.933594 124.957031 182.972656 124.789062 C 183.085938 124.296875 183.207031 123.789062 183.453125 123.320312 C 183.78125 122.707031 184.277344 122.25 184.84375 121.757812 C 185.871094 120.875 187.101562 120.015625 188.445312 120.296875 C 189.410156 120.5 190.070312 121.226562 190.710938 121.925781 C 191.1875 122.449219 191.679688 122.988281 192.285156 123.277344 C 192.585938 123.421875 192.910156 123.507812 193.253906 123.59375 C 193.414062 123.636719 193.578125 123.679688 193.738281 123.726562 C 194.597656 123.988281 195.402344 124.449219 196.070312 125.054688 C 196.179688 125.152344 196.1875 125.320312 196.089844 125.425781 C 195.992188 125.535156 195.824219 125.542969 195.714844 125.445312 C 195.105469 124.890625 194.371094 124.46875 193.585938 124.230469 C 193.433594 124.183594 193.277344 124.144531 193.121094 124.105469 C 192.769531 124.015625 192.402344 123.917969 192.058594 123.753906 C 191.363281 123.421875 190.832031 122.839844 190.320312 122.277344 C 189.710938 121.613281 189.136719 120.980469 188.335938 120.8125 C 187.214844 120.578125 186.117188 121.359375 185.1875 122.160156 C 184.664062 122.613281 184.203125 123.035156 183.921875 123.566406 C 183.703125 123.976562 183.597656 124.429688 183.484375 124.910156 C 183.445312 125.082031 183.40625 125.253906 183.359375 125.425781 C 183.328125 125.542969 183.222656 125.621094 183.105469 125.621094 " fill-opacity="1" fill-rule="nonzero"/></g><path fill="#ff66c4" d="M 189.679688 142.964844 Z M 189.679688 142.964844 Z M 189.679688 142.964844 C 189.679688 142.96875 189.683594 142.972656 189.683594 142.976562 C 189.683594 142.972656 189.679688 142.96875 189.679688 142.964844 Z M 189.785156 143.070312 Z M 189.992188 143.277344 Z M 190.445312 143.691406 C 190.367188 143.691406 190.292969 143.660156 190.242188 143.597656 C 190.191406 143.535156 190.140625 143.472656 190.085938 143.414062 L 190.046875 143.371094 C 190.007812 143.324219 189.972656 143.28125 189.933594 143.238281 C 189.921875 143.226562 189.910156 143.214844 189.898438 143.203125 C 189.855469 143.15625 189.8125 143.109375 189.769531 143.066406 L 189.761719 143.0625 C 189.746094 143.050781 189.734375 143.039062 189.71875 143.023438 C 189.703125 143.007812 189.6875 142.992188 189.667969 142.976562 C 189.550781 142.890625 189.53125 142.722656 189.621094 142.609375 C 189.707031 142.492188 189.875 142.472656 189.988281 142.5625 C 190.019531 142.585938 190.050781 142.613281 190.078125 142.640625 C 190.082031 142.640625 190.082031 142.640625 190.082031 142.644531 C 190.09375 142.652344 190.105469 142.660156 190.113281 142.667969 C 190.117188 142.671875 190.128906 142.683594 190.132812 142.6875 C 190.1875 142.738281 190.234375 142.789062 190.285156 142.84375 C 190.296875 142.851562 190.304688 142.859375 190.3125 142.871094 C 190.316406 142.875 190.324219 142.882812 190.328125 142.890625 C 190.371094 142.9375 190.410156 142.980469 190.449219 143.03125 L 190.480469 143.066406 C 190.535156 143.125 190.589844 143.191406 190.644531 143.257812 C 190.738281 143.367188 190.726562 143.535156 190.613281 143.628906 C 190.5625 143.667969 190.503906 143.691406 190.445312 143.691406 " fill-opacity="1" fill-rule="nonzero"/><path fill="#ff66c4" d="M 189.882812 143.378906 L 189.878906 143.378906 Z M 189.863281 143.410156 Z M 189.8125 144.136719 C 189.738281 144.136719 189.664062 144.105469 189.613281 144.042969 C 189.519531 143.929688 189.535156 143.765625 189.644531 143.671875 C 189.671875 143.652344 189.695312 143.628906 189.714844 143.605469 C 189.777344 143.542969 189.824219 143.480469 189.863281 143.40625 C 189.863281 143.40625 189.867188 143.402344 189.867188 143.398438 C 189.871094 143.390625 189.875 143.382812 189.878906 143.378906 C 189.917969 143.308594 189.953125 143.230469 189.988281 143.136719 C 189.988281 143.136719 190.003906 143.101562 190.003906 143.101562 C 190.054688 142.964844 190.210938 142.902344 190.34375 142.953125 C 190.480469 143.007812 190.546875 143.160156 190.492188 143.296875 L 190.480469 143.332031 C 190.4375 143.4375 190.394531 143.539062 190.34375 143.628906 C 190.335938 143.644531 190.328125 143.660156 190.316406 143.675781 C 190.253906 143.785156 190.183594 143.882812 190.101562 143.964844 C 190.066406 144.003906 190.023438 144.042969 189.984375 144.074219 C 189.933594 144.117188 189.875 144.136719 189.8125 144.136719 " fill-opacity="1" fill-rule="nonzero"/><g fill="#ffd700" fill-opacity="1"><g transform="translate(158.771879, 245.585674)"><g><path d="M 17.890625 0 L 17.6875 0 L 13.6875 -9.515625 L 9.734375 0 L 9.484375 0 L 1 -20.078125 L 3.46875 -20.078125 L 10.703125 -2.84375 L 13.59375 -9.765625 L 9.3125 -20.078125 L 11.703125 -20.078125 L 14.796875 -12.609375 L 16.515625 -16.609375 C 17.066406 -18.003906 17.878906 -19 18.953125 -19.59375 C 20.023438 -20.195312 21.132812 -20.269531 22.28125 -19.8125 C 23.019531 -19.53125 23.5625 -19.113281 23.90625 -18.5625 C 24.257812 -18.019531 24.445312 -17.40625 24.46875 -16.71875 C 24.488281 -16.039062 24.347656 -15.351562 24.046875 -14.65625 Z M 14.96875 -12.296875 L 18.90625 -2.84375 L 23.90625 -14.65625 C 24.164062 -15.3125 24.289062 -15.96875 24.28125 -16.625 C 24.28125 -17.289062 24.113281 -17.894531 23.78125 -18.4375 C 23.445312 -18.976562 22.929688 -19.378906 22.234375 -19.640625 C 21.421875 -19.941406 20.648438 -19.984375 19.921875 -19.765625 C 19.203125 -19.554688 18.566406 -19.164062 18.015625 -18.59375 C 17.472656 -18.03125 17.039062 -17.367188 16.71875 -16.609375 Z M 14.96875 -12.296875 "/></g></g></g><g fill="#ffd700" fill-opacity="1"><g transform="translate(189.886149, 245.585674)"><g><path d="M 1 0 L 1 -20.046875 L 3.125 -20.046875 L 3.125 0 Z M 1 0 "/></g></g></g><g fill="#ffd700" fill-opacity="1"><g transform="translate(199.625409, 245.585674)"><g><path d="M 2.4375 -15.21875 C 2.4375 -16.28125 2.691406 -17.160156 3.203125 -17.859375 C 3.710938 -18.554688 4.378906 -19.097656 5.203125 -19.484375 C 6.023438 -19.878906 6.925781 -20.117188 7.90625 -20.203125 C 8.894531 -20.285156 9.875 -20.234375 10.84375 -20.046875 C 11.8125 -19.859375 12.6875 -19.546875 13.46875 -19.109375 C 14.257812 -18.671875 14.851562 -18.117188 15.25 -17.453125 L 15.25 -14.484375 C 14.53125 -15.941406 13.695312 -17.078125 12.75 -17.890625 C 11.800781 -18.703125 10.820312 -19.253906 9.8125 -19.546875 C 8.8125 -19.835938 7.859375 -19.914062 6.953125 -19.78125 C 6.046875 -19.65625 5.257812 -19.363281 4.59375 -18.90625 C 4.050781 -18.550781 3.679688 -18.097656 3.484375 -17.546875 C 3.285156 -16.992188 3.335938 -16.375 3.640625 -15.6875 C 3.953125 -15 4.582031 -14.265625 5.53125 -13.484375 C 6.476562 -12.710938 7.816406 -11.914062 9.546875 -11.09375 C 10.578125 -10.664062 11.550781 -10.175781 12.46875 -9.625 C 13.394531 -9.070312 14.144531 -8.40625 14.71875 -7.625 C 15.300781 -6.851562 15.59375 -5.910156 15.59375 -4.796875 C 15.59375 -4.035156 15.441406 -3.359375 15.140625 -2.765625 C 14.847656 -2.171875 14.445312 -1.664062 13.9375 -1.25 C 13.125 -0.625 12.148438 -0.222656 11.015625 -0.046875 C 9.878906 0.117188 8.691406 0.078125 7.453125 -0.171875 C 6.210938 -0.421875 5.023438 -0.867188 3.890625 -1.515625 C 2.753906 -2.171875 1.789062 -3.007812 1 -4.03125 L 1 -7.984375 C 1.695312 -6.222656 2.570312 -4.753906 3.625 -3.578125 C 4.6875 -2.398438 5.828125 -1.523438 7.046875 -0.953125 C 8.273438 -0.390625 9.46875 -0.144531 10.625 -0.21875 C 11.789062 -0.300781 12.820312 -0.71875 13.71875 -1.46875 C 14.1875 -1.875 14.484375 -2.34375 14.609375 -2.875 C 14.734375 -3.414062 14.617188 -4.015625 14.265625 -4.671875 C 13.910156 -5.335938 13.265625 -6.035156 12.328125 -6.765625 C 11.398438 -7.492188 10.109375 -8.238281 8.453125 -9 C 7.429688 -9.457031 6.460938 -9.957031 5.546875 -10.5 C 4.628906 -11.050781 3.878906 -11.703125 3.296875 -12.453125 C 2.722656 -13.210938 2.4375 -14.132812 2.4375 -15.21875 Z M 2.4375 -15.21875 "/></g></g></g></svg>